<svg xmlns="http://www.w3.org/2000/svg" viewBox="0 0 300 350">
  <!-- Background -->
  <rect width="300" height="350" fill="#D4A54F"/>
  
  <!-- Wheat stalks at bottom -->
  <g id="wheat">
    <line x1="20" y1="280" x2="25" y2="200" stroke="#DAA520" stroke-width="2"/>
    <line x1="40" y1="280" x2="38" y2="210" stroke="#DAA520" stroke-width="2"/>
    <line x1="60" y1="280" x2="62" y2="220" stroke="#DAA520" stroke-width="2"/>
    <line x1="80" y1="280" x2="78" y2="200" stroke="#DAA520" stroke-width="2"/>
    <line x1="100" y1="280" x2="102" y2="210" stroke="#DAA520" stroke-width="2"/>
    <line x1="120" y1="280" x2="118" y2="220" stroke="#DAA520" stroke-width="2"/>
    <line x1="140" y1="280" x2="142" y2="200" stroke="#DAA520" stroke-width="2"/>
    <line x1="160" y1="280" x2="158" y2="210" stroke="#DAA520" stroke-width="2"/>
    <line x1="180" y1="280" x2="182" y2="220" stroke="#DAA520" stroke-width="2"/>
    <line x1="200" y1="280" x2="198" y2="200" stroke="#DAA520" stroke-width="2"/>
    <line x1="220" y1="280" x2="222" y2="210" stroke="#DAA520" stroke-width="2"/>
    <line x1="240" y1="280" x2="238" y2="220" stroke="#DAA520" stroke-width="2"/>
    <line x1="260" y1="280" x2="262" y2="200" stroke="#DAA520" stroke-width="2"/>
    <line x1="280" y1="280" x2="278" y2="210" stroke="#DAA520" stroke-width="2"/>
  </g>
  
  <!-- Woman farmer circle -->
  <circle cx="70" cy="100" r="35" fill="#E8C4A0"/>
  
  <!-- Head -->
  <circle cx="70" cy="85" r="20" fill="#D4A574"/>
  
  <!-- Hair -->
  <path d="M 50 85 Q 50 65 70 60 Q 90 65 90 85" fill="#3D3D3D"/>
  
  <!-- Face -->
  <circle cx="65" cy="82" r="2.5" fill="#333"/>
  <circle cx="75" cy="82" r="2.5" fill="#333"/>
  <line x1="70" y1="88" x2="70" y2="92" stroke="#333" stroke-width="1.5"/>
  <path d="M 68 95 Q 70 97 72 95" stroke="#333" stroke-width="1" fill="none"/>
  
  <!-- Body -->
  <ellipse cx="70" cy="115" rx="18" ry="22" fill="#6B5344"/>
  
  <!-- Text -->
  <text x="150" y="60" font-size="20" font-weight="bold" fill="#2C3E50">
    Women Farmer
  </text>
  <text x="150" y="90" font-size="14" fill="#2C3E50">
    Millet Production Leader
  </text>
  <text x="150" y="110" font-size="12" fill="#666">
    Pioneering sustainable
  </text>
  <text x="150" y="128" font-size="12" fill="#666">
    millet cultivation
  </text>
  <text x="150" y="160" font-size="13" font-weight="bold" fill="#2C3E50">
    Empowering rural women
  </text>
  <text x="150" y="180" font-size="13" font-weight="bold" fill="#2C3E50">
    in agriculture
  </text>
  
  <!-- Award star -->
  <text x="260" y="50" font-size="32">🏆</text>
</svg>